<?xml version="1.0" encoding="UTF-8"?> <svg xmlns="http://www.w3.org/2000/svg" viewBox="0 0 170.08 172.19"><defs><style>.cls-1{fill:#ffd600;}.cls-2{fill:#ce0e2d;stroke:#c11718;stroke-linecap:round;stroke-linejoin:round;stroke-width:0.25px;}.cls-3{fill:#fff;}</style></defs><title>LPS-Website-lps-iso</title><g id="Capa_2" data-name="Capa 2"><g id="Capa_1-2" data-name="Capa 1"><path class="cls-1" d="M150.51,98.92l19.57-12.8L150.51,73.27A66.75,66.75,0,0,0,97.78,20.61h.28L85.07,0,72,20.61h.27A66.77,66.77,0,0,0,19.57,73.27L0,86.07,19.57,98.92A66.74,66.74,0,0,0,72.3,151.58H72l13,20.61,13-20.61h-.27A66.77,66.77,0,0,0,150.51,98.92Z"></path><path class="cls-2" d="M44.65,67.22h5.42V97.84h17.4V103H44.65Z"></path><path class="cls-2" d="M72.57,67.22h13a20.88,20.88,0,0,1,4.07.4,11,11,0,0,1,4,2.1,8.61,8.61,0,0,1,2.74,3.44,11,11,0,0,1,1.11,5.1,10.84,10.84,0,0,1-2.8,7.23C92.7,87.78,89.91,89,86.23,89H78v14H72.57ZM78,83.89h8A5.68,5.68,0,0,0,90.54,82,6,6,0,0,0,92,78.11a7,7,0,0,0-.59-3,4.61,4.61,0,0,0-1.71-1.74,6.88,6.88,0,0,0-3.88-1H78Z"></path><path class="cls-2" d="M113.93,97.84q7-.09,7.06-5,0-4-4.66-4.81c-1.44-.19-3-.41-4.73-.66a11.65,11.65,0,0,1-7-3.41,9.44,9.44,0,0,1-2.48-6.62,9.8,9.8,0,0,1,3.11-7.55c2-1.89,4.86-2.86,8.56-2.89a20.08,20.08,0,0,1,11.59,3.7l-3,4.46a16.37,16.37,0,0,0-8.85-2.74,6.71,6.71,0,0,0-4.17,1.25,4.63,4.63,0,0,0-1.79,3.87,4,4,0,0,0,1.2,2.8A6.92,6.92,0,0,0,112.6,82q1.47.24,4,.57,5,.68,7.43,3.6a10.1,10.1,0,0,1,2.38,6.67q-.27,10.25-12.55,10.39a20.27,20.27,0,0,1-13.66-4.9l3.56-4.07A15.64,15.64,0,0,0,113.93,97.84Z"></path><path class="cls-3" d="M85,147.58A61.49,61.49,0,1,1,146.53,86.1,61.55,61.55,0,0,1,85,147.58Zm0-119A57.49,57.49,0,1,0,142.53,86.1,57.56,57.56,0,0,0,85,28.61Z"></path></g></g></svg> 